<?xml version="1.0" encoding="UTF-8" standalone="no" ?>
<!DOCTYPE svg PUBLIC "-//W3C//DTD SVG 1.1//EN" "http://www.w3.org/Graphics/SVG/1.1/DTD/svg11.dtd">
<svg xmlns="http://www.w3.org/2000/svg" xmlns:xlink="http://www.w3.org/1999/xlink" version="1.1" width="1280" height="1024" viewBox="0 0 1280 1024" xml:space="preserve">
<desc>Created with Fabric.js 3.1.0</desc>
<defs>
</defs>
<g transform="matrix(1.9692780337941629 0 0 1.9692780337941629 640.0153846153846 512.012312418764)" id="background-logo"  >
<rect style="stroke: none; stroke-width: 1; stroke-dasharray: none; stroke-linecap: butt; stroke-dashoffset: 0; stroke-linejoin: miter; stroke-miterlimit: 4; fill: rgb(44,19,72); fill-rule: nonzero; opacity: 1;"  paint-order="stroke"  x="-325" y="-260" rx="0" ry="0" width="650" height="520" />
</g>
<g transform="matrix(1.9692780337941627 0 0 1.9692780337941627 638.3566909589906 678.5914644707493)" id="text-logo-path"  >
<path style="stroke: none; stroke-width: 0; stroke-dasharray: none; stroke-linecap: butt; stroke-dashoffset: 0; stroke-linejoin: miter; stroke-miterlimit: 4; fill: rgb(255,145,77); fill-rule: nonzero; opacity: 1;"  paint-order="stroke"  transform=" translate(-157.675, 27.485)" d="M 1.65 -13.18 L 1.65 -13.18 Q 1.65 -14.69 2.73 -15.82 Q 3.81 -16.96 5.31 -16.96 L 5.31 -16.96 Q 6.81 -16.96 7.91 -15.82 Q 9.01 -14.69 9.01 -13.18 L 9.01 -13.18 Q 9.01 -11.46 10.03 -9.96 L 10.03 -9.96 Q 11.02 -8.53 12.6 -7.87 L 12.6 -7.87 Q 13.59 -7.43 14.87 -7.43 L 14.87 -7.43 Q 16.66 -7.43 18.09 -8.39 L 18.09 -8.39 Q 19.52 -9.38 20.18 -10.95 L 20.18 -10.95 Q 20.62 -12.08 20.62 -13.18 L 20.62 -13.18 L 20.62 -51.23 Q 20.62 -52.73 21.72 -53.81 Q 22.81 -54.9 24.39 -54.9 L 24.39 -54.9 Q 25.89 -54.9 26.97 -53.81 Q 28.05 -52.73 28.05 -51.23 L 28.05 -51.23 L 28.05 -13.18 Q 28.05 -11.24 27.45 -9.38 Q 26.84 -7.51 25.82 -5.86 L 25.82 -5.86 Q 23.66 -2.56 19.96 -1.06 L 19.96 -1.06 Q 17.47 0 14.87 0 L 14.87 0 Q 12.93 0 11 -0.59 Q 9.08 -1.17 7.43 -2.23 L 7.43 -2.23 Q 5.86 -3.37 4.65 -4.83 Q 3.44 -6.3 2.71 -8.09 L 2.71 -8.09 Q 2.12 -9.3 1.89 -10.62 Q 1.65 -11.94 1.65 -13.18 Z M 35.23 -3.66 L 35.23 -3.66 L 35.23 -40.5 Q 35.23 -42.66 35.87 -44.73 Q 36.51 -46.8 37.72 -48.52 L 37.72 -48.52 Q 40.14 -52.19 44.09 -53.76 L 44.09 -53.76 Q 46.8 -54.9 49.73 -54.9 L 49.73 -54.9 Q 54.24 -54.9 57.82 -52.44 L 57.82 -52.44 Q 61.41 -50.02 62.99 -46.14 L 62.99 -46.14 Q 64.2 -43.29 64.2 -40.5 L 64.2 -40.5 L 64.2 -3.66 Q 64.2 -2.16 63.1 -1.08 Q 62 0 60.42 0 L 60.42 0 Q 58.92 0 57.84 -1.08 Q 56.76 -2.16 56.76 -3.66 L 56.76 -3.66 L 56.76 -18.82 Q 56.76 -19.41 56.4 -19.79 Q 56.03 -20.18 55.41 -20.18 L 55.41 -20.18 L 44.02 -20.18 Q 43.43 -20.18 43.05 -19.79 Q 42.66 -19.41 42.66 -18.82 L 42.66 -18.82 L 42.66 -3.66 Q 42.66 -2.16 41.58 -1.08 Q 40.5 0 38.93 0 L 38.93 0 Q 37.43 0 36.33 -1.08 Q 35.23 -2.16 35.23 -3.66 Z M 42.66 -40.5 L 42.66 -28.86 Q 42.66 -28.27 43.05 -27.94 Q 43.43 -27.61 44.02 -27.61 L 44.02 -27.61 L 55.41 -27.61 Q 55.99 -27.61 56.38 -27.94 Q 56.76 -28.27 56.76 -28.86 L 56.76 -28.86 L 56.76 -40.5 Q 56.76 -42.74 55.55 -44.38 L 55.55 -44.38 Q 54.42 -46.11 52.48 -46.95 L 52.48 -46.95 Q 51.05 -47.53 49.73 -47.53 L 49.73 -47.53 Q 47.72 -47.53 45.74 -46.36 L 45.74 -46.36 Q 44.02 -45.23 43.18 -43.21 L 43.18 -43.21 Q 42.88 -42.63 42.77 -41.89 Q 42.66 -41.16 42.66 -40.5 L 42.66 -40.5 Z M 71.59 -3.66 L 71.59 -3.66 L 71.59 -41.71 Q 71.59 -45.85 73.86 -49.11 L 73.86 -49.11 Q 76.03 -52.33 79.69 -53.83 L 79.69 -53.83 Q 80.9 -54.42 82.18 -54.66 Q 83.46 -54.9 84.81 -54.9 L 84.81 -54.9 Q 88.88 -54.9 92.25 -52.66 L 92.25 -52.66 Q 93.46 -51.93 94.34 -50.94 L 94.34 -50.94 Q 96.13 -52.81 98.77 -53.83 L 98.77 -53.83 Q 99.98 -54.42 101.24 -54.66 Q 102.5 -54.9 103.86 -54.9 L 103.86 -54.9 Q 107.92 -54.9 111.29 -52.66 L 111.29 -52.66 Q 114.51 -50.5 116.02 -46.88 L 116.02 -46.88 Q 117.08 -44.31 117.04 -41.71 L 117.04 -41.71 L 117.04 -18.38 L 117.04 -3.66 Q 117.04 -2.16 115.96 -1.08 Q 114.88 0 113.31 0 L 113.31 0 Q 111.8 0 110.72 -1.08 Q 109.64 -2.16 109.64 -3.66 L 109.64 -3.66 L 109.72 -18.38 L 109.72 -41.71 Q 109.72 -43.51 108.65 -45.01 L 108.65 -45.01 Q 107.67 -46.44 106.09 -47.09 L 106.09 -47.09 Q 105.03 -47.53 103.86 -47.53 L 103.86 -47.53 Q 102.21 -47.53 100.63 -46.58 L 100.63 -46.58 Q 99.06 -45.52 98.55 -43.95 L 98.55 -43.95 Q 98.11 -42.88 98.07 -41.71 L 98.07 -41.71 L 98.07 -3.66 Q 98.07 -2.16 96.99 -1.08 Q 95.91 0 94.34 0 L 94.34 0 Q 92.83 0 91.74 -1.08 Q 90.64 -2.16 90.64 -3.66 L 90.64 -3.66 L 90.64 -41.71 Q 90.64 -43.51 89.61 -45.01 L 89.61 -45.01 Q 88.62 -46.44 87.05 -47.09 L 87.05 -47.09 Q 85.99 -47.53 84.81 -47.53 L 84.81 -47.53 Q 83.17 -47.53 81.59 -46.58 L 81.59 -46.58 Q 80.02 -45.52 79.47 -43.95 L 79.47 -43.95 Q 79.03 -42.88 79.03 -41.71 L 79.03 -41.71 L 79.03 -3.66 Q 79.03 -2.16 77.95 -1.08 Q 76.87 0 75.29 0 L 75.29 0 Q 73.79 0 72.69 -1.08 Q 71.59 -2.16 71.59 -3.66 Z M 124.66 -27.28 L 124.66 -27.28 Q 124.66 -28.86 125.76 -29.96 Q 126.86 -31.05 128.36 -31.05 L 128.36 -31.05 L 142.16 -31.05 Q 143.66 -31.05 144.74 -29.96 Q 145.83 -28.86 145.83 -27.28 L 145.83 -27.28 Q 145.83 -25.78 144.73 -24.7 Q 143.63 -23.62 142.16 -23.62 L 142.16 -23.62 L 128.36 -23.62 Q 126.86 -23.62 125.76 -24.72 Q 124.66 -25.82 124.66 -27.28 Z M 150.4 -4.36 L 150.4 -4.36 Q 152.56 -16.22 154.28 -25.71 L 154.28 -25.71 Q 155.02 -29.77 155.75 -33.67 Q 156.48 -37.57 157.03 -40.69 Q 157.58 -43.8 157.97 -45.79 Q 158.35 -47.79 158.42 -48.01 L 158.42 -48.01 Q 159.01 -51.09 161.35 -52.95 L 161.35 -52.95 Q 163.66 -54.9 166.66 -54.9 L 166.66 -54.9 Q 169.74 -54.9 172.08 -52.95 L 172.08 -52.95 Q 174.39 -51.09 175.01 -48.01 L 175.01 -48.01 Q 175.01 -47.79 175.38 -45.83 Q 175.74 -43.87 176.31 -40.76 Q 176.88 -37.65 177.59 -33.75 Q 178.31 -29.85 179.04 -25.82 L 179.04 -25.82 Q 180.76 -16.3 183.03 -4.36 L 183.03 -4.36 Q 183.14 -3.96 183.14 -3.55 L 183.14 -3.55 Q 183.14 -2.53 182.41 -1.65 L 182.41 -1.65 Q 181.57 -0.29 180.1 -0.07 L 180.1 -0.07 Q 179.88 0 179.41 0 L 179.41 0 Q 178.05 0 177.04 -0.86 Q 176.04 -1.72 175.74 -3.08 L 175.74 -3.08 L 173.44 -15.6 Q 173.29 -16.66 172.16 -16.66 L 172.16 -16.66 L 161.28 -16.66 Q 160.14 -16.66 159.92 -15.6 L 159.92 -15.6 L 157.65 -3.08 Q 157.36 -1.72 156.35 -0.86 Q 155.35 0 153.99 0 L 153.99 0 Q 153.55 0 153.33 -0.07 L 153.33 -0.07 Q 151.83 -0.29 150.99 -1.65 L 150.99 -1.65 Q 150.29 -2.49 150.29 -3.52 L 150.29 -3.52 Q 150.29 -3.92 150.4 -4.36 Z M 161.79 -25.56 L 161.79 -25.56 Q 161.72 -25.05 162.08 -24.54 L 162.08 -24.54 Q 162.38 -24.1 163.07 -24.06 L 163.07 -24.06 L 170.25 -24.06 Q 170.91 -24.06 171.31 -24.54 L 171.31 -24.54 Q 171.68 -25.05 171.61 -25.56 L 171.61 -25.56 Q 171.02 -28.64 170.49 -31.6 Q 169.96 -34.57 169.48 -37.15 Q 169.01 -39.73 168.62 -41.8 Q 168.24 -43.87 168.02 -45.15 L 168.02 -45.15 Q 167.72 -46.22 166.66 -46.22 L 166.66 -46.22 Q 165.6 -46.22 165.38 -45.15 L 165.38 -45.15 Q 165.16 -43.87 164.79 -41.8 Q 164.43 -39.73 163.93 -37.15 Q 163.44 -34.57 162.87 -31.6 Q 162.3 -28.64 161.79 -25.56 Z M 188.6 -3.74 L 188.6 -3.74 L 188.6 -51.23 Q 188.6 -52.73 189.73 -53.81 Q 190.87 -54.9 192.37 -54.9 L 192.37 -54.9 Q 193.87 -54.9 194.95 -53.81 Q 196.03 -52.73 196.03 -51.23 L 196.03 -51.23 L 196.03 -8.72 Q 196.03 -8.2 196.42 -7.82 Q 196.8 -7.43 197.39 -7.43 L 197.39 -7.43 L 206.69 -7.43 Q 208.19 -7.43 209.27 -6.34 Q 210.35 -5.24 210.35 -3.74 L 210.35 -3.74 Q 210.35 -2.16 209.27 -1.08 Q 208.19 0 206.69 0 L 206.69 0 L 192.37 0 Q 190.87 0 189.73 -1.08 Q 188.6 -2.16 188.6 -3.74 Z M 212.44 -14.54 L 212.44 -14.54 L 212.44 -40.58 Q 212.44 -42.74 213.08 -44.81 Q 213.72 -46.88 214.93 -48.6 L 214.93 -48.6 Q 217.35 -52.26 221.3 -53.83 L 221.3 -53.83 Q 224.01 -54.97 226.94 -54.97 L 226.94 -54.97 Q 231.45 -54.97 235.03 -52.51 L 235.03 -52.51 Q 238.62 -50.1 240.2 -46.22 L 240.2 -46.22 Q 241.41 -43.36 241.41 -40.58 L 241.41 -40.58 L 241.41 -14.54 Q 241.41 -10.18 238.92 -6.45 L 238.92 -6.45 Q 237.71 -4.72 236.11 -3.37 Q 234.52 -2.01 232.54 -1.21 L 232.54 -1.21 Q 229.83 -0.07 226.94 -0.07 L 226.94 -0.07 Q 222.58 -0.07 218.85 -2.56 L 218.85 -2.56 Q 217.13 -3.77 215.77 -5.36 Q 214.42 -6.96 213.57 -8.94 L 213.57 -8.94 Q 212.44 -11.65 212.44 -14.54 Z M 219.87 -40.58 L 219.87 -14.54 Q 219.87 -12.3 221.08 -10.58 L 221.08 -10.58 Q 222.22 -8.86 224.16 -8.02 L 224.16 -8.02 Q 225.44 -7.51 226.94 -7.51 L 226.94 -7.51 Q 229.17 -7.51 230.9 -8.72 L 230.9 -8.72 Q 232.62 -9.85 233.46 -11.79 L 233.46 -11.79 Q 233.97 -13.07 233.97 -14.54 L 233.97 -14.54 L 233.97 -40.58 Q 233.97 -42.81 232.76 -44.46 L 232.76 -44.46 Q 231.63 -46.18 229.69 -47.02 L 229.69 -47.02 Q 228.26 -47.61 226.94 -47.61 L 226.94 -47.61 Q 224.93 -47.61 222.95 -46.44 L 222.95 -46.44 Q 221.23 -45.3 220.42 -43.29 L 220.42 -43.29 Q 220.13 -42.7 220 -41.97 Q 219.87 -41.24 219.87 -40.58 L 219.87 -40.58 Z M 248.51 -3.66 L 248.51 -3.66 L 248.51 -40.58 Q 248.51 -42.74 249.15 -44.81 Q 249.79 -46.88 251 -48.6 L 251 -48.6 Q 253.42 -52.26 257.37 -53.83 L 257.37 -53.83 Q 260.08 -54.97 263.01 -54.97 L 263.01 -54.97 Q 267.52 -54.97 271.11 -52.51 L 271.11 -52.51 Q 274.69 -50.1 276.27 -46.22 L 276.27 -46.22 Q 277.48 -43.36 277.48 -40.58 L 277.48 -40.58 L 277.48 -3.66 Q 277.48 -2.16 276.38 -1.08 Q 275.28 0 273.78 0 L 273.78 0 Q 272.28 0 271.16 -1.08 Q 270.04 -2.16 270.04 -3.66 L 270.04 -3.66 L 270.04 -40.58 Q 270.04 -42.81 268.84 -44.46 L 268.84 -44.46 Q 267.7 -46.18 265.76 -47.02 L 265.76 -47.02 Q 264.33 -47.61 263.01 -47.61 L 263.01 -47.61 Q 261 -47.61 259.02 -46.44 L 259.02 -46.44 Q 257.3 -45.3 256.46 -43.29 L 256.46 -43.29 Q 256.16 -42.7 256.05 -41.97 Q 255.94 -41.24 255.94 -40.58 L 255.94 -40.58 L 255.94 -3.66 Q 255.94 -2.16 254.86 -1.08 Q 253.78 0 252.21 0 L 252.21 0 Q 250.71 0 249.61 -1.08 Q 248.51 -2.16 248.51 -3.66 Z M 284.8 -14.54 L 284.8 -14.54 L 284.8 -40.58 Q 284.8 -42.74 285.41 -44.81 Q 286.01 -46.88 287.29 -48.6 L 287.29 -48.6 Q 289.71 -52.26 293.66 -53.83 L 293.66 -53.83 Q 296.23 -54.97 299.23 -54.97 L 299.23 -54.97 L 299.3 -54.97 Q 303.74 -54.97 307.32 -52.51 L 307.32 -52.51 Q 309.05 -51.31 310.4 -49.73 Q 311.76 -48.16 312.56 -46.22 L 312.56 -46.22 Q 313.7 -43.51 313.7 -40.58 L 313.7 -40.58 Q 313.7 -39.07 312.6 -37.96 Q 311.5 -36.84 310 -36.84 L 310 -36.84 Q 308.5 -36.84 307.42 -37.96 Q 306.34 -39.07 306.34 -40.58 L 306.34 -40.58 Q 306.34 -42.52 305.13 -44.46 L 305.13 -44.46 Q 303.77 -46.25 301.98 -47.02 L 301.98 -47.02 Q 300.62 -47.61 299.3 -47.61 L 299.3 -47.61 Q 298.17 -47.61 297.2 -47.31 Q 296.23 -47.02 295.31 -46.44 L 295.31 -46.44 Q 293.59 -45.3 292.75 -43.29 L 292.75 -43.29 Q 292.16 -41.93 292.16 -40.58 L 292.16 -40.58 L 292.16 -14.54 Q 292.16 -12.52 293.37 -10.58 L 293.37 -10.58 Q 294.73 -8.79 296.52 -8.02 L 296.52 -8.02 Q 297.66 -7.51 299.3 -7.51 L 299.3 -7.51 Q 301.46 -7.51 303.19 -8.72 L 303.19 -8.72 Q 304.91 -9.85 305.75 -11.79 L 305.75 -11.79 Q 306.34 -13.22 306.34 -14.54 L 306.34 -14.54 L 306.34 -18.97 Q 306.34 -19.48 305.97 -19.87 Q 305.6 -20.25 304.98 -20.25 L 304.98 -20.25 L 301.76 -20.25 Q 300.26 -20.25 299.18 -21.33 Q 298.1 -22.41 298.1 -23.99 L 298.1 -23.99 Q 298.1 -25.49 299.18 -26.59 Q 300.26 -27.69 301.76 -27.69 L 301.76 -27.69 L 310 -27.69 Q 311.57 -27.69 312.63 -26.55 L 312.63 -26.55 Q 313.7 -25.49 313.7 -23.99 L 313.7 -23.99 L 313.7 -14.54 Q 313.7 -10.03 311.21 -6.45 L 311.21 -6.45 Q 308.79 -2.93 304.91 -1.21 L 304.91 -1.21 Q 302.2 -0.07 299.3 -0.07 L 299.3 -0.07 Q 294.95 -0.07 291.17 -2.56 L 291.17 -2.56 Q 289.45 -3.77 288.12 -5.36 Q 286.78 -6.96 285.94 -8.94 L 285.94 -8.94 Q 284.8 -11.65 284.8 -14.54 Z" stroke-linecap="round" />
</g>
<g transform="matrix(1.6305980011464645 0 0 1.6305980011464645 640.0153846153846 347.9714522037104)" style="" id="logo-logo"  >
	<g transform="matrix(0.21581095834850542 0 0 -0.21581095834850542 0 0)"  >
<path style="stroke: none; stroke-width: 1; stroke-dasharray: none; stroke-linecap: butt; stroke-dashoffset: 0; stroke-linejoin: miter; stroke-miterlimit: 4; fill: rgb(255,145,77); fill-rule: nonzero; opacity: 1;"  paint-order="stroke"  transform=" translate(-1625.0000000000005, -1299.9992499999998)" d="m 2083.64 1463.74 l -79.58 51.73 c -5.06 3.3 -11.52 3.56 -16.82 0.66 c -5.31 -2.87 -8.61 -8.42 -8.61 -14.47 v -212.64 c 0 -12.11 -9.84 -21.95 -21.95 -21.95 c -12.1 0 -21.95 9.84 -21.95 21.95 v 73.41 c 0 27.23 -22.15 49.38 -49.39 49.38 c -27.23 0 -49.38 -22.15 -49.38 -49.38 v -202.36 c 0 -10.6 -8.62 -19.21 -19.2 -19.21 c -10.6 0 -19.22 8.61 -19.22 19.21 v 256.53 c 0 24.97 -20.31 45.28 -45.27 45.28 c -24.96 0 -45.27 -20.31 -45.27 -45.28 v -163.24 c 0 -12.11 -9.85 -21.96 -21.94 -21.96 c -12.11 0 -21.95 9.85 -21.95 21.96 v 208.52 c 0 30.25 -24.63 54.88 -54.88 54.88 c -30.26 0 -54.87 -24.63 -54.87 -54.88 v -397.84 c 0 -18.15 -14.77 -32.92 -32.93 -32.92 c -18.16 0 -32.93 14.77 -32.93 32.92 v 492.49 c 0 29.51 -24 53.51 -53.5 53.51 c -29.5 0 -53.5 -24 -53.5 -53.51 v -305.91 c 0 -33.3 -27.08 -60.38 -60.37 -60.38 c -33.27 0 -60.36 27.08 -60.36 60.38 v 108.36 c 0 24.97 -20.31 45.28 -45.27 45.28 h -68.11 v 291.26 c 0 56.63 29.28 107.36 78.33 135.67 c 49.05 28.32 107.62 28.32 156.67 0 l 434.47 -250.84 c -2.62 -7.56 -4.34 -15.55 -4.34 -23.99 c 0 -40.85 33.23 -74.09 74.09 -74.09 c 40.84 0 74.08 33.24 74.08 74.09 c 0 40.85 -33.24 74.08 -74.08 74.08 c -20.55 0 -39.15 -8.43 -52.58 -21.98 l -435.18 251.25 c -59.36 34.27 -130.24 34.27 -189.6 0 c -59.36 -34.28 -94.79 -95.66 -94.79 -164.19 v -307.73 c 0 -9.09 7.37 -16.46 16.46 -16.46 h 84.58 c 6.81 0 12.35 -5.54 12.35 -12.35 v -108.36 c 0 -51.45 41.85 -93.3 93.28 -93.3 c 51.45 0 93.3 41.85 93.3 93.3 v 305.91 c 0 11.36 9.23 20.58 20.57 20.58 c 11.36 0 20.58 -9.22 20.58 -20.58 v -492.49 c 0 -36.31 29.54 -65.845 65.85 -65.845 c 36.31 0 65.85 29.535 65.85 65.845 v 397.84 c 0 12.1 9.85 21.96 21.95 21.96 c 12.1 0 21.95 -9.86 21.95 -21.96 v -208.52 c 0 -30.25 24.62 -54.88 54.88 -54.88 c 30.25 0 54.87 24.63 54.87 54.88 v 163.24 c 0 6.8 5.53 12.35 12.34 12.35 c 6.81 0 12.35 -5.55 12.35 -12.35 v -256.53 c 0 -28.75 23.39 -52.14 52.14 -52.14 c 28.74 0 52.12 23.39 52.12 52.14 v 202.36 c 0 9.08 7.39 16.46 16.46 16.46 c 9.08 0 16.47 -7.38 16.47 -16.46 v -73.41 c 0 -30.25 24.62 -54.87 54.87 -54.87 c 30.26 0 54.87 24.62 54.87 54.87 v 182.31 l 54.89 -35.66 c 49.05 -28.31 78.33 -79.03 78.33 -135.67 c 0 -56.64 -29.28 -107.36 -78.33 -135.67 L 1381.39 768.813 c -49.07 -28.325 -107.64 -28.325 -156.67 0 c -49.05 28.312 -78.33 79.035 -78.33 135.671 V 1201 c 23.74 7.12 41.15 28.88 41.15 54.94 c 0 31.83 -25.8 57.62 -57.62 57.62 c -31.82 0 -57.62 -25.79 -57.62 -57.62 c 0 -26.06 17.42 -47.82 41.16 -54.94 V 904.484 c 0 -68.539 35.43 -129.914 94.79 -164.191 c 29.68 -17.137 62.24 -25.707 94.8 -25.707 c 32.56 0 65.12 8.57 94.8 25.707 l 685.05 395.517 c 59.37 34.27 94.8 95.65 94.8 164.19 c 0 68.54 -35.43 129.92 -94.06 163.74 z m -198.03 133.78 c 22.69 0 41.15 -18.46 41.15 -41.16 c 0 -22.7 -18.46 -41.16 -41.15 -41.16 c -22.7 0 -41.16 18.46 -41.16 41.16 c 0 22.7 18.46 41.16 41.16 41.16" stroke-linecap="round" />
</g>
</g>
</svg>